<?xml version="1.0" encoding="UTF-8"?>
<svg width="291px" height="213px" viewBox="-60 -60 411 333" version="1.1" xmlns="http://www.w3.org/2000/svg" xmlns:xlink="http://www.w3.org/1999/xlink">
    <title>Shape</title>
    <defs>
        <radialGradient cx="50%" cy="0%" fx="50%" fy="0%" r="95.656311%" gradientTransform="translate(0.500000,0.000000),scale(0.729771,1.000000),rotate(71.564434),translate(-0.500000,-0.000000)" id="radialGradient-1">
            <stop stop-color="#7D80F0" offset="0%"></stop>
            <stop stop-color="#95CAFF" offset="100%"></stop>
        </radialGradient>
    </defs>
    <g id="Page-1" stroke="none" stroke-width="1" fill="none" fill-rule="evenodd">
        <g id="Design-an-app-icon-logo-for-“MyHabitat”-using-an-“MH”-monogram-forming-a-house-or-building-shape.-Centered-composition,-rounded-corners,-minimal-detail,-strong-contrast,-optimized-for-small-screens._What-makes-this-idea-powerful__M-" transform="translate(0.352937, 0.029944)" fill="url(#radialGradient-1)" fill-rule="nonzero">
            <path d="M139.147063,211.470056 L123.647063,212.050056 L123.647063,173.510056 L123.646955,172.798192 L123.646955,172.798192 L123.646094,171.390978 C123.625247,148.820104 123.269063,134.970056 122.687063,134.970056 C122.167063,134.970056 118.917063,138.680056 115.477063,143.220056 C112.037063,147.760056 106.667063,154.700056 103.547063,158.640056 L97.8770628,165.820056 L95.4170628,163.140056 C94.0670628,161.670056 88.7770628,154.960056 83.6670628,148.220056 C78.5570628,141.480056 74.0370628,135.970056 73.6170628,135.970056 C72.0070628,135.970056 71.6581988,140.202056 71.643832,166.490224 L71.6437789,170.045663 C71.6443428,171.27348 71.6454628,172.544456 71.6470628,173.860056 C71.6584628,181.095256 71.6669748,187.943464 71.67205,193.706708 L71.6728228,194.607576 C71.6729468,194.756184 71.6730684,194.904015 71.6731875,195.051057 L71.6738737,195.923731 C71.6739832,196.067564 71.6740903,196.210582 71.6741949,196.352772 L71.6747934,197.195878 C71.6748882,197.334707 71.6749806,197.472682 71.6750705,197.609792 L71.6758128,198.820056 C71.6758878,198.951856 71.6759603,199.082752 71.6760302,199.212731 L71.6768906,201.092077 C71.6769352,201.212571 71.6769773,201.332084 71.6770168,201.450605 L71.6770263,206.070806 C71.6769864,206.156673 71.6769439,206.241357 71.6768986,206.324844 L71.6760132,207.485819 C71.6759404,207.557022 71.6758648,207.626966 71.6757864,207.695636 L71.6750051,208.278959 C71.6749098,208.339878 71.6748118,208.399486 71.6747109,208.45777 L71.6740715,208.791486 C71.6737348,208.9503 71.6733724,209.096971 71.672984,209.231156 L71.6721728,209.482776 C71.6707628,209.874056 71.6690628,210.124056 71.6670628,210.220056 L71.6637154,210.314903 C71.5755735,211.773531 69.7128093,211.956771 52.4372336,211.969299 L51.3134741,211.969878 C51.1226484,211.969939 50.9300456,211.969984 50.7356492,211.970013 L28.6470628,211.970056 L28.6470628,162.470056 L28.6469491,161.654661 L28.6469491,161.654661 L28.6460449,160.033216 C28.6241908,133.923899 28.2532628,112.970056 27.8070628,112.970056 C27.3470628,112.970056 23.8870628,115.370056 20.1170628,118.310056 L13.2670628,123.660056 L6.48706276,119.060056 C2.75706276,116.540056 -0.162937241,114.020056 0.00706275933,113.470056 C0.277062759,112.550056 9.13706276,105.360056 27.1470628,91.4200562 C43.7070628,78.6100562 105.307063,30.5100562 133.037063,8.75005617 C139.147063,3.95005617 144.667063,0.0100561671 145.307063,2.8044063e-05 C145.614263,-0.00955845688 149.038775,2.43921656 154.362981,6.43065445 L155.038313,6.93755265 C160.747063,11.2275562 168.462063,17.1500562 176.807063,23.6700562 L177.323927,24.0735785 L177.323927,24.0735785 L178.361441,24.8835929 C179.921206,26.101358 181.49583,27.3307903 183.073587,28.5627279 L184.651953,29.7951614 C185.528922,30.4799336 186.40565,31.1645365 187.280129,31.8473992 L188.328295,32.6658986 C201.413649,42.8841863 213.811805,52.5695407 218.737063,56.4200562 C225.117063,61.4000562 235.017063,69.1500562 240.737063,73.6400562 C244.615832,76.68621 252.055008,82.518371 259.800772,88.5806313 L260.858608,89.4084893 C261.211649,89.6847574 261.565018,89.9612609 261.91841,90.2377597 L262.978346,91.067002 C265.626826,93.1388727 268.25937,95.1969792 270.747063,97.1400562 L271.479099,97.7129804 C281.927972,105.897448 290.44979,112.860738 290.567063,113.320056 C290.687063,113.790056 287.697063,116.310056 283.917063,118.920056 L277.047063,123.670056 L270.177063,118.320056 C266.407063,115.380056 262.947063,112.970056 262.497063,112.970056 C262.037063,112.970056 261.547063,135.130056 261.407063,162.220056 L261.147063,211.470056 L245.667063,212.050056 L245.407063,155.340056 L245.147063,98.6200562 L228.147063,85.3100562 C225.427063,83.1806016 222.413403,80.8277289 219.35129,78.4422359 L218.201206,77.5465196 C211.100917,72.0181024 203.905426,66.4427834 199.647063,63.1800562 C195.427063,59.9467228 187.540396,53.8378339 179.341137,47.4637599 L178.221433,46.5931694 C177.847763,46.3025881 177.473762,46.0117041 177.099745,45.7207624 L175.977961,44.8480098 C172.988091,42.5215162 170.017366,40.2070259 167.227063,38.0300562 C149.267063,24.0000562 146.007063,21.8300562 144.127063,22.5900562 C142.927063,23.0700562 120.057063,40.5200562 93.2970628,61.3600562 L44.6470628,99.2400562 L44.6470628,194.970056 L55.6470628,194.970056 L55.6470628,102.240056 L60.2870628,101.610056 C62.8370628,101.260056 65.4670628,100.970056 66.1370628,100.970056 C66.8070628,100.970056 73.7170628,109.470056 81.5070628,119.860056 C89.2970628,130.250056 96.2570628,139.240056 96.9770628,139.830056 C97.9970628,140.680056 101.557063,136.510056 113.117063,120.940056 L127.947063,100.970056 L132.547063,100.990056 C135.077063,100.990056 137.717063,101.360056 138.407063,101.800056 C139.159463,102.278856 139.461335,109.16324 139.4751,131.263456 L139.475393,133.952256 C139.4743,136.874041 139.468782,140.040241 139.45916,143.468195 L192.317063,143.470056 C205.607063,143.470056 216.857063,143.100056 217.317063,142.640056 C217.777063,142.180056 218.287063,132.900056 218.457063,122.020056 L218.757063,102.240056 L223.977063,101.700056 C226.847063,101.400056 230.427063,101.400056 231.927063,101.680056 L234.667063,102.210056 L234.147063,211.470056 L218.467063,211.470056 L218.497063,191.970056 L218.497256,190.929317 L218.497256,190.929317 L218.495928,189.885082 L218.495928,189.885082 L218.493114,188.839161 C218.460049,179.074999 218.238031,169.327153 217.967063,166.220056 L217.417063,159.970056 L139.393,159.97 L139.147063,211.470056 Z M161.647063,67.9700562 L161.647063,82.9700562 L154.817063,82.9700562 C151.057063,82.9700562 147.677063,82.6700562 147.317063,82.3000562 C146.947063,81.9400562 146.647063,78.5600562 146.647063,74.8000562 L146.647063,67.9700562 L161.647063,67.9700562 Z M143.737063,67.9700562 L143.147063,82.4700562 L135.897063,82.7600562 L128.647063,83.0600562 L128.647063,67.9700562 L143.737063,67.9700562 Z M161.867063,61.0100562 L162.147063,64.4700562 L155.107063,64.7600562 C151.227063,64.9200562 147.737063,64.7300562 147.357063,64.3400562 C146.967063,63.9500562 146.647063,59.8400562 146.647063,55.1900562 L146.647063,46.7500562 L149.397063,47.4300562 C156.577063,49.2000562 161.327063,54.3700562 161.867063,61.0100562 Z M143.437063,56.2200562 L143.147063,64.4700562 L135.987063,64.7600562 C132.037063,64.9200562 128.577063,64.6700562 128.297063,64.2100562 C127.507063,62.9300562 129.177063,56.4700562 130.967063,53.9300562 C133.257063,50.6600562 137.737063,47.9800562 140.937063,47.9800562 L143.727063,47.9700562 L143.437063,56.2200562 Z" id="Shape"></path>
        </g>
    </g>
</svg>